<svg id="Layer_1" data-name="Layer 1" xmlns="http://www.w3.org/2000/svg" viewBox="0 0 451 150" width="128" height="42.572"><defs><style>.cls-1{fill:#f05a22}</style></defs><path class="cls-1" d="M36.2 16.7v56.7a2.15 2.15 0 0 1-1.74 2.12C27.22 76.89 0 80.54 0 57.55V17c0-22.36 36.2-22.86 36.2-.3M85.73 55.79v56.71a2.14 2.14 0 0 1-1.73 2.11c-7.23 1.38-34.46 5-34.46-18V56.05c0-22.31 36.2-22.81 36.2-.26M135.27 90.1v56.71a2.15 2.15 0 0 1-1.75 2.12c-7.23 1.37-34.46 5-34.46-18V90.36c0-22.31 36.21-22.81 36.21-.26"/><path d="m194.93 40 24.3 26.55h-8.78l-22-24.37V66.5h-6.83V14h6.83v24.53L210.53 14h8.7ZM220.58 49.25c0-10.12 6.75-18.22 18-18.22s18 8.1 18 18.22-6.82 18.15-18 18.15-18-8.1-18-18.15Zm29.48 0c0-7-4.2-12.37-11.48-12.37S227 42.28 227 49.25s4.28 12.3 11.55 12.3 11.51-5.4 11.51-12.3ZM265.16 31.93h6.53v6.37c1.87-4.42 6.07-7.27 12.07-7.27 8.48 0 12.83 4.95 12.83 14.17v21.3h-6.45V48.05c0-7.72-2.55-11.4-8.7-11.4-6.45 0-9.75 4.58-9.75 11.55v18.3h-6.53ZM325.47 60.65v5.78a29.53 29.53 0 0 1-5.85.52C315.57 67 309 66.2 309 55V37.4h-6.22v-5.47H309V21h6.53v11h8.7v5.4h-8.7v16.2c0 6.6 2.25 7.5 5.55 7.5a24.65 24.65 0 0 0 4.39-.45ZM363.19 51.13h-26.78c.15 6.67 4.28 10.57 10.88 10.57 4.57 0 7.72-1.8 9.15-5.1H363c-1.2 6.38-7.57 10.8-15.67 10.8-10.69 0-17.33-7.05-17.33-18.22 0-11 6.75-18.15 17-18.15 9.75 0 16.35 6.75 16.35 16.27a35.35 35.35 0 0 1-.16 3.83Zm-6.23-5c0-6.07-3.75-9.82-10-9.82s-10.2 4-10.5 9.82ZM372.2 31.93h6.53v6.37c1.87-4.42 6.07-7.3 12.07-7.3 8.47 0 12.82 4.95 12.82 14.17V66.5h-6.45V48.05c0-7.72-2.55-11.4-8.69-11.4-6.45 0-9.75 4.58-9.75 11.55v18.3h-6.53ZM432.51 60.65v5.78a29.53 29.53 0 0 1-5.85.52c-4.05 0-10.58-.75-10.58-11.92V37.4h-6.22v-5.47h6.22V21h6.53v11h8.7v5.4h-8.7v16.2c0 6.6 2.25 7.5 5.55 7.5a24.65 24.65 0 0 0 4.35-.45Z"/><path class="cls-1" d="M439.67 61.55a5.44 5.44 0 0 1 5.4-5.47 5.48 5.48 0 1 1 0 11 5.45 5.45 0 0 1-5.4-5.53Z"/><path d="M180.75 96.5h12.15v41.7h19.5V149h-31.65ZM255.08 134.08h-26.7c.22 4.72 3.37 7.27 8.47 7.27 3.53 0 5.78-1 6.75-3.22h11.25c-1.12 7.12-8.4 11.85-18 11.85-12.3 0-19.87-7-19.87-19 0-11.85 7.72-19.05 19.5-19.05 11.25 0 18.9 7 18.9 17.17a40.19 40.19 0 0 1-.3 4.98Zm-11-7.13c-.07-4.8-2.77-7.35-7.65-7.35s-8 2.93-8 7.35ZM260.36 130.93c0-10.8 6.68-19.05 17.18-19.05 5.25 0 9.37 2.47 11.32 6.15v-5.18h11.4V149h-11.4v-5.1c-1.95 3.6-6.45 6.08-11.47 6.08-10.8.02-17.03-8.18-17.03-19.05Zm28.95 0c0-5.18-2.92-9.45-8.62-9.45-5.33 0-8.63 4-8.63 9.45s3.3 9.52 8.63 9.52c5.7 0 8.62-4.27 8.62-9.52ZM309.57 112.85h11.48v7.58a10.12 10.12 0 0 1 10-8.18 11.41 11.41 0 0 1 3 .3v10.65a25.76 25.76 0 0 0-3.45-.22c-6.22 0-9.52 4-9.52 12.07V149h-11.51ZM339.58 112.85h11.48v5.25c2.1-4 6.22-6.22 11.7-6.22 8.77 0 13.2 5 13.2 14.77V149h-11.55v-18.6c0-6.07-1.73-8.85-6.38-8.85s-7 3-7 8.55V149h-11.45Z"/></svg>